<?xml version="1.0" encoding="utf-8"?>
<!-- Generator: Adobe Illustrator 15.1.0, SVG Export Plug-In . SVG Version: 6.00 Build 0)  -->
<!DOCTYPE svg PUBLIC "-//W3C//DTD SVG 1.1//EN" "http://www.w3.org/Graphics/SVG/1.1/DTD/svg11.dtd">
<svg version="1.1" id="Layer_1" xmlns="http://www.w3.org/2000/svg" xmlns:xlink="http://www.w3.org/1999/xlink" x="0px" y="0px"
	 width="95px" height="146px" viewBox="0 0 95 146" enable-background="new 0 0 95 146" xml:space="preserve">
<g>
	<path fill-rule="evenodd" clip-rule="evenodd" fill="#FFFFFF" d="M41.082,9.411c0,0,2.566-3.756,6.298-0.927
		c1.447,1.113,2.1-0.186,2.521-0.417c0.187-0.186,2.659-1.994,5.505,1.113s33.313,45.585,33.313,45.585s4.152,3.524,0.746,10.573
		C86.15,72.34,75.888,94.738,75.888,94.738s-1.214,1.716,1.026,3.709c2.332,1.995,7.698,9.925,7.698,9.925l-32.986-0.231
		c0,0-2.053-0.047-2.566-2.829c-0.513-2.829-0.746-3.757-0.746-3.757l-1.166,5.286c0,0-0.747,1.531-2.193,1.3
		c-1.493-0.187-32.893,0.324-32.893,0.324l8.352-10.806c0,0,1.167-1.205,0.374-3.106c-0.887-1.9-13.95-30.328-13.95-30.328
		s-2.753-4.359,1.026-9.229C11.642,50.034,41.082,9.411,41.082,9.411L41.082,9.411z M48.407,38.023L48.407,38.023l-4.106,37.563
		c0,0,2.847,1.901,4.06,4.73c0.606-2.18,3.965-4.916,3.965-4.916L48.407,38.023z"/>
	<path fill="#FFFFFF" d="M28.158,120.754h-7.512v-2.318c0-1.067-0.093-1.716-0.28-2.04c-0.187-0.278-0.513-0.418-0.933-0.418
		c-0.513,0-0.887,0.186-1.12,0.604c-0.233,0.37-0.373,0.974-0.373,1.762c0,1.02,0.14,1.809,0.42,2.319
		c0.28,0.509,1.026,1.158,2.286,1.9c3.592,2.134,5.832,3.85,6.765,5.24c0.933,1.345,1.399,3.524,1.399,6.539
		c0,2.225-0.28,3.849-0.793,4.869c-0.513,1.066-1.493,1.9-2.986,2.643c-1.493,0.696-3.219,1.021-5.179,1.021
		c-2.146,0-3.966-0.372-5.506-1.206c-1.539-0.788-2.519-1.854-2.986-3.107c-0.467-1.251-0.747-3.015-0.747-5.333v-2.04h7.512v3.756
		c0,1.159,0.093,1.901,0.326,2.227c0.187,0.324,0.56,0.509,1.121,0.509c0.513,0,0.933-0.23,1.166-0.648
		c0.28-0.417,0.42-1.021,0.42-1.855c0-1.809-0.233-3.014-0.747-3.571c-0.513-0.555-1.773-1.482-3.779-2.781
		c-2.006-1.346-3.313-2.272-3.966-2.875c-0.653-0.604-1.213-1.438-1.633-2.504s-0.653-2.412-0.653-4.034
		c0-2.366,0.327-4.082,0.933-5.195c0.607-1.065,1.586-1.946,2.94-2.551c1.353-0.603,2.986-0.927,4.898-0.927
		c2.1,0,3.873,0.371,5.319,1.021c1.493,0.695,2.472,1.53,2.939,2.55c0.466,1.021,0.747,2.736,0.747,5.194V120.754z M31.377,111.387
		L31.377,111.387h13.437v6.168h-5.365v5.89h5.039v5.842h-5.039v6.771h5.925v6.167H31.377V111.387z M66.836,111.387L66.836,111.387
		l-4.106,30.838H50.506l-4.666-30.838h8.492c0.979,8.486,1.68,15.675,2.1,21.563c0.467-5.936,0.887-11.222,1.353-15.813l0.514-5.75
		H66.836z M81.627,111.387L81.627,111.387l4.618,30.838h-8.259l-0.42-5.518h-2.893l-0.466,5.518h-8.353l4.106-30.838H81.627z
		 M77.334,131.234L77.334,131.234c-0.374-3.524-0.794-7.837-1.213-13.031c-0.794,5.982-1.308,10.295-1.494,13.031H77.334z"/>
</g>
</svg>
