<?xml version="1.0" encoding="utf-8"?>
<!-- Generator: Adobe Illustrator 15.1.0, SVG Export Plug-In . SVG Version: 6.00 Build 0)  -->
<!DOCTYPE svg PUBLIC "-//W3C//DTD SVG 1.1//EN" "http://www.w3.org/Graphics/SVG/1.1/DTD/svg11.dtd">
<svg version="1.1" xmlns="http://www.w3.org/2000/svg" xmlns:xlink="http://www.w3.org/1999/xlink" x="0px" y="0px" width="160px"
	 height="60px" viewBox="0 0 160 60" enable-background="new 0 0 160 60" xml:space="preserve">
<g id="Layer_1" display="none">
	<g display="inline">
		
			<rect display="none" fill-rule="evenodd" clip-rule="evenodd" fill="#040406" stroke="#161617" stroke-width="0.5817" stroke-miterlimit="10" width="160" height="60"/>
		<path fill-rule="evenodd" clip-rule="evenodd" fill="#050606" d="M111.064,36.735h-1.529c0,0.961-0.509,0.687,4.123,0.687
			c0.277,0,0.23-0.138,0.23-0.458c0-0.365-0.879-0.229-1.666-0.229l2.314-5.4h5.28c0.186,0.686,2.224,4.714,2.362,5.4
			c-1.76,0-2.038-0.229-2.038,0.458c0,0.183,0.046,0.229,0.231,0.229h7.18c0.324,0,0.277-0.138,0.277-0.458
			c0-0.412-1.25-0.229-1.992-0.229c-0.092-0.184-0.139-0.32-0.23-0.504l-3.335-7.553c-0.278-0.641-0.603-1.281-0.88-2.014
			c-0.324-0.687-0.603-1.281-0.926-2.014c-0.14-0.32-0.279-0.596-0.418-0.961c-0.186-0.367-0.277-0.688-0.463-1.008l-0.648-1.465
			c-0.186-0.504-0.092-0.412-1.019-0.412c-0.278,0-0.37,0.412-0.556,0.824c-1.854,4.623-4.029,9.43-5.883,14.007
			C111.342,36.003,111.11,36.415,111.064,36.735L111.064,36.735z M114.77,30.51h4.816l-2.362-5.675L114.77,30.51z"/>
		<path fill-rule="evenodd" clip-rule="evenodd" fill="#050606" d="M34.136,21.813h1.575v14.922c-1.807,0-1.575-0.184-1.575,0.596
			h4.585v-0.596h-1.667V23.461l3.659,5.081c0.648,0.915,5.928,8.285,5.975,8.56h1.204V21.813h1.574v-0.642h-4.585v0.642h1.668v9.521
			c-0.278-0.184-6.901-9.934-6.948-10.163h-5.465V21.813z"/>
		<path fill-rule="evenodd" clip-rule="evenodd" fill="#050606" d="M84.156,21.813c2.453,0,1.574-0.367,3.103,1.922
			c0.463,0.688,0.88,1.373,1.343,2.061l2.594,4.119c-0.602,0.916-3.149,3.937-4.029,5.081l-1.344,1.739c-0.23,0-0.509,0-0.787,0
			c-0.602-0.046-0.602-0.092-0.602,0.458c0,0.183,0.047,0.229,0.23,0.229h3.613c0.324,0,0.231-0.183,0.231-0.687h-1.25l3.474-4.303
			c0.186-0.275,0.973-1.328,1.25-1.419c0.093,0.229,0.278,0.503,0.417,0.687c0.14,0.274,0.324,0.504,0.464,0.732
			c0.324,0.457,0.602,0.916,0.926,1.419l1.853,2.884h-1.807v0.687h7.087c0.324,0,0.23-0.183,0.23-0.687
			c-2.084,0-1.436,0.229-2.223-0.961c-0.277-0.366-0.463-0.732-0.695-1.1l-4.121-6.408c0.231-0.365,2.27-2.791,2.64-3.25l2.27-2.838
			c0.324-0.504,0.186-0.365,1.528-0.365v-0.642h-4.029v0.642h1.344l-4.539,5.4c-0.047-0.32-0.603-1.053-0.834-1.373l-2.641-4.027
			h1.76v-0.642h-7.455V21.813z"/>
		<path fill-rule="evenodd" clip-rule="evenodd" fill="#050606" d="M59.84,21.813h2.039v14.922H59.84v0.596h13.432v-5.127h-0.324
			c-0.556,2.288-2.131,4.531-5.002,4.531h-2.732v-7.645c2.408,0,3.52-0.183,4.445,2.609c0.094,0.366,0,0.412,0.465,0.412v-6.866
			h-0.324c-0.186,0.732-0.51,1.465-0.928,2.06c-0.834,1.19-2.361,0.961-3.658,0.961v-6.453c1.297,0,4.029-0.139,5.095,0.273
			c0.88,0.367,1.204,0.732,1.714,1.328c0.973,1.189,0.51,1.831,1.25,1.831v-4.074H59.84V21.813z"/>
	</g>
</g>
<g id="Layer_2">
	<g>
		<g>
			<path fill="#E82127" d="M46.15,36.756c-0.517,0.314-1.6,0.63-2.966,0.63c-3.166,0-5.532-2.362-5.532-6.732
				c0-4.173,2.383-6.968,5.865-6.968c1.383,0,2.283,0.354,2.666,0.59l-0.366,1.398c-0.533-0.315-1.316-0.551-2.25-0.551
				c-2.633,0-4.382,1.988-4.382,5.472c0,3.268,1.583,5.334,4.299,5.334c0.9,0,1.8-0.217,2.383-0.551L46.15,36.756z"/>
			<path fill="#E82127" d="M58.562,30.397c0,4.547-2.35,6.988-5.216,6.988c-2.982,0-5.049-2.736-5.049-6.752
				c0-4.212,2.2-6.968,5.199-6.968C56.579,23.666,58.562,26.441,58.562,30.397z M49.83,30.595c0,2.854,1.3,5.394,3.599,5.394
				s3.599-2.5,3.599-5.512c0-2.657-1.167-5.413-3.583-5.413S49.83,27.701,49.83,30.595z"/>
			<path fill="#E82127" d="M71.238,31.343c-0.083-1.851-0.183-4.095-0.183-5.728h-0.033c-0.4,1.535-0.85,3.208-1.417,5.039
				l-1.983,6.436h-1.1l-1.833-6.318c-0.533-1.89-0.966-3.582-1.283-5.157h-0.033c-0.034,1.653-0.117,3.858-0.217,5.866l-0.3,5.688
				h-1.383l0.783-13.267h1.85l1.916,6.417c0.467,1.634,0.833,3.09,1.133,4.468h0.033c0.3-1.339,0.7-2.795,1.2-4.468l2-6.417h1.85
				l0.7,13.267h-1.433L71.238,31.343z"/>
			<path fill="#E82127" d="M85.964,31.343c-0.083-1.851-0.183-4.095-0.183-5.728h-0.034c-0.399,1.535-0.85,3.208-1.416,5.039
				l-1.983,6.436h-1.1l-1.833-6.318c-0.533-1.89-0.966-3.582-1.283-5.157H78.1c-0.034,1.653-0.117,3.858-0.217,5.866l-0.3,5.688
				H76.2l0.783-13.267h1.85l1.916,6.417c0.466,1.634,0.833,3.09,1.133,4.468h0.033c0.3-1.339,0.699-2.795,1.199-4.468l2-6.417h1.85
				l0.7,13.267H86.23L85.964,31.343z"/>
			<path fill="#E82127" d="M97.023,30.949h-4.349v4.784h4.865v1.437h-6.331V23.902h6.082v1.437h-4.616v4.193h4.349V30.949z"/>
			<path fill="#E82127" d="M100.755,24.079c0.733-0.157,1.8-0.275,2.782-0.275c1.55,0,2.566,0.354,3.249,1.083
				c0.55,0.59,0.884,1.496,0.884,2.539c0,1.732-0.934,2.894-2.1,3.366v0.059c0.85,0.354,1.366,1.299,1.633,2.677
				c0.366,1.851,0.633,3.13,0.866,3.642h-1.499c-0.184-0.394-0.434-1.516-0.733-3.169c-0.333-1.831-0.95-2.52-2.267-2.579h-1.366
				v5.748h-1.449V24.079z M102.204,30.122h1.483c1.55,0,2.532-1.004,2.532-2.52c0-1.712-1.05-2.46-2.582-2.46
				c-0.7,0-1.184,0.059-1.434,0.138V30.122z"/>
			<path fill="#E82127" d="M118.93,36.756c-0.517,0.314-1.6,0.63-2.966,0.63c-3.166,0-5.532-2.362-5.532-6.732
				c0-4.173,2.383-6.968,5.865-6.968c1.383,0,2.283,0.354,2.666,0.59l-0.366,1.398c-0.533-0.315-1.316-0.551-2.25-0.551
				c-2.632,0-4.382,1.988-4.382,5.472c0,3.268,1.583,5.334,4.299,5.334c0.9,0,1.8-0.217,2.383-0.551L118.93,36.756z"/>
			<path fill="#E82127" d="M123.543,23.902v13.267h-1.466V23.902H123.543z"/>
			<path fill="#E82127" d="M129.224,32.996l-1.167,4.173h-1.499l3.832-13.267h1.732l3.833,13.267h-1.55l-1.2-4.173H129.224z
				 M132.922,31.657l-1.116-3.818c-0.25-0.866-0.416-1.653-0.583-2.421h-0.033c-0.167,0.768-0.333,1.595-0.566,2.402l-1.1,3.838
				H132.922z"/>
			<path fill="#E82127" d="M138.919,23.902h1.466v11.831h4.799v1.437h-6.265V23.902z"/>
		</g>
		<g>
			<path fill-rule="evenodd" clip-rule="evenodd" fill="#E82127" d="M21.876,21.417c-2.534,2.272-5.451,3.946-8.56,5.308
				l11.071,7.916l-0.622,0.311l-4.591-3.061c-1.483-0.981-5.189-0.287-5.931,0.956l8.512,5.954c2.368-2.248,5.237-4.065,8.609-5.428
				l-11.19-7.771l0.597-0.479l3.611,2.606c1.817,1.292,3.252,1.626,7.15-0.286L21.876,21.417z"/>
		</g>
	</g>
</g>
<g id="Layer_3" display="none">
	<g display="inline">
		<path fill="#2D3893" d="M103.242,15.857c0,0.267-0.209,0.307-0.354,0.39c-1.531,0.9-3.013,1.884-4.438,2.945
			c-3.054,2.237-5.622,4.957-7.896,7.957c-2.143,2.829-4.21,5.716-6.307,8.581c-0.687,0.936-1.36,1.881-2.034,2.828
			c-0.106,0.208-0.32,0.341-0.555,0.346c-1.609-0.012-3.22,0-4.826,0c-0.082-0.006-0.163-0.018-0.243-0.037
			c-0.046-0.16-0.104-0.325-0.142-0.497c-0.728-3.372-1.452-6.747-2.192-10.111c-0.189-0.842-0.439-1.668-0.75-2.473
			c-0.257-0.573-0.552-1.127-0.884-1.66c-0.068-0.129-0.155-0.247-0.254-0.405c0.099-0.066,0.207-0.119,0.319-0.158
			c0.916-0.168,1.856-0.161,2.769,0.021c1.313,0.272,2.453,1.077,3.15,2.222c0.581,0.97,0.964,2.046,1.125,3.166
			c0.185,1.062,0.351,2.128,0.53,3.191c0.029,0.174,0.074,0.344,0.132,0.604c0.149-0.185,0.253-0.304,0.349-0.43
			c1.453-1.938,2.863-3.91,4.369-5.808c2.287-2.922,5.086-5.404,8.261-7.323c2.891-1.715,6.08-2.862,9.401-3.381
			c0.112-0.019,0.227-0.03,0.343-0.033C103.151,15.792,103.181,15.824,103.242,15.857z"/>
		<path fill="#2D3893" d="M25.537,23.225c0.181,0,0.344-0.021,0.508-0.021h6.52c0.814-0.018,1.626,0.089,2.409,0.316
			c0.317,0.094,0.625,0.217,0.921,0.367c1.178,0.56,1.857,1.82,1.676,3.111c-0.249,2.632-2.167,4.802-4.749,5.368
			c-0.141,0.034-0.282,0.074-0.493,0.127c0.662,1.092,1.292,2.138,1.925,3.184l1.917,3.169c-0.251,0.019-0.415,0.041-0.564,0.041
			c-1.577,0-3.153-0.011-4.73,0c-0.316,0.037-0.614-0.155-0.712-0.458c-0.752-1.681-1.528-3.351-2.296-5.022
			c-0.068-0.146-0.147-0.29-0.275-0.546l-1.597,5.925c-0.415,0.112-4.047,0.133-4.589,0.038
			C21.396,38.443,25.087,24.443,25.537,23.225z M28.315,30.187c0.472,0,0.865,0.021,1.257,0c0.616-0.022,1.218-0.181,1.763-0.467
			c0.658-0.351,1.102-1,1.19-1.74c0.126-0.543-0.165-1.097-0.684-1.302c-0.79-0.355-1.626-0.374-2.506-0.316
			C28.996,27.635,28.663,28.878,28.315,30.187z"/>
		<path fill="#2D3893" d="M121.981,23.229h4.619c-0.043,0.207-0.072,0.379-0.118,0.548c-0.722,2.707-1.444,5.413-2.167,8.121
			c-0.189,0.637-0.281,1.3-0.272,1.964c0.035,0.942,0.484,1.557,1.406,1.732c2.111,0.403,3.705-0.287,4.543-2.127
			c0.3-0.685,0.544-1.391,0.729-2.113c0.677-2.462,1.326-4.93,1.99-7.397c0.063-0.236,0.14-0.47,0.208-0.722h4.617
			c-0.036,0.183-0.056,0.328-0.094,0.469c-0.781,2.914-1.563,5.828-2.351,8.742c-0.152,0.559-0.335,1.111-0.543,1.66
			c-0.711,1.919-2.189,3.455-4.083,4.238c-1.719,0.751-3.524,1.003-5.393,0.955c-0.83-0.007-1.656-0.113-2.461-0.319
			c-0.336-0.089-0.668-0.198-0.991-0.326c-1.89-0.776-2.771-2.281-2.489-4.314c0.097-0.688,0.235-1.372,0.415-2.045
			c0.741-2.824,1.504-5.639,2.261-8.458C121.85,23.646,121.911,23.459,121.981,23.229z"/>
		<path fill="#2D3893" d="M45.321,23.233c-0.068,0.296-0.118,0.537-0.18,0.774c-0.695,2.595-1.396,5.187-2.074,7.788
			c-0.135,0.529-0.232,1.067-0.291,1.611c-0.032,0.313-0.014,0.629,0.054,0.936c0.104,0.593,0.552,1.067,1.139,1.201
			c1.522,0.399,3.583,0.208,4.602-1.807c0.334-0.686,0.602-1.4,0.798-2.137c0.722-2.586,1.403-5.186,2.1-7.782
			c0.031-0.111,0.068-0.221,0.091-0.336c0.016-0.17,0.167-0.294,0.337-0.279c0.003,0,0.006,0,0.009,0.001l4.18,0.015
			c0.06,0.012,0.117,0.033,0.172,0.061c-0.029,0.143-0.051,0.289-0.089,0.429c-0.798,2.979-1.6,5.957-2.406,8.935
			c-0.161,0.576-0.356,1.141-0.585,1.693c-0.745,1.821-2.056,3.111-3.827,3.941c-1.104,0.502-2.284,0.82-3.492,0.941
			c-1.55,0.203-3.125,0.116-4.643-0.257c-0.696-0.166-1.354-0.464-1.938-0.879c-0.875-0.632-1.411-1.632-1.452-2.71
			c-0.066-1.06,0.166-2.075,0.436-3.089c0.764-2.871,1.533-5.739,2.309-8.603c0.125-0.465,0.129-0.469,0.6-0.469h3.624
			C44.937,23.204,45.084,23.221,45.321,23.233z"/>
		<path fill="#2D3893" d="M84.889,38.825c0.131-0.207,0.222-0.353,0.324-0.498c3.465-4.906,6.93-9.815,10.395-14.729
			c0.157-0.274,0.456-0.435,0.771-0.415c1.361,0.018,2.722,0,4.083,0H101c0.843,5.229,1.677,10.413,2.51,15.588
			c-0.414,0.121-4.326,0.144-4.959,0.034c-0.142-0.83-0.284-1.701-0.438-2.613c-0.164-0.014-0.323-0.036-0.481-0.036
			c-1.825,0-3.651,0-5.478,0c-0.265-0.021-0.519,0.108-0.658,0.334c-0.481,0.698-0.986,1.377-1.478,2.074
			c-0.099,0.194-0.296,0.32-0.515,0.326c-1.452-0.011-2.92,0-4.382-0.014C85.043,38.868,84.965,38.85,84.889,38.825z M97.156,28.216
			l-0.113-0.031l-0.776,1.181l-0.757,1.163c-0.264,0.4-0.533,0.799-0.786,1.207c-0.278,0.386-0.528,0.792-0.751,1.212
			c0.666,0.127,3.319,0.096,3.707-0.048C97.505,31.349,97.331,29.783,97.156,28.216z"/>
		<path fill="#2D3893" d="M149.76,23.229c-0.051,0.224-0.081,0.384-0.125,0.541c-0.207,0.786-0.414,1.571-0.621,2.357
			c-0.147,0.541-0.149,0.544-0.697,0.545c-1.427,0-2.854,0-4.282,0h-0.687c-0.232,0.865-0.452,1.689-0.694,2.591h5.199
			c-0.259,1.201-0.599,2.299-0.902,3.473c-1.734,0.037-3.454,0-5.23,0.025l-0.71,2.613c0.23,0.015,0.402,0.034,0.574,0.035
			c1.412,0,2.82,0,4.23,0h0.661c-0.225,1.201-0.597,2.293-0.86,3.386c-0.415,0.116-9.543,0.144-10.119,0.042
			c0-0.373,3.892-15.04,4.149-15.608H149.76z"/>
		<path fill="#2D3893" d="M59.697,35.399c1.867,0.03,3.651,0,5.506,0.021c-0.318,1.192-0.623,2.282-0.901,3.377
			c-0.402,0.118-9.555,0.139-10.099,0.032c-0.011-0.011-0.021-0.023-0.031-0.036c-0.008-0.015-0.012-0.03-0.012-0.046
			c0.008-0.098,0.022-0.196,0.043-0.292c1.353-5.059,2.707-10.112,4.06-15.161c0.388-0.109,9.322-0.149,10.148-0.047
			c-0.003,0.123-0.015,0.245-0.038,0.366c-0.232,0.883-0.469,1.763-0.709,2.641c-0.111,0.416-0.118,0.416-0.545,0.416
			c-1.477,0-2.952,0-4.429,0h-0.649c-0.23,0.852-0.452,1.674-0.685,2.526c0.469,0.146,0.896,0.058,1.317,0.075
			c0.421,0.017,0.83,0,1.245,0h2.579c-0.004,0.14-0.018,0.277-0.042,0.416c-0.232,0.886-0.469,1.771-0.709,2.653
			c-0.11,0.399-0.119,0.414-0.55,0.414c-1.411,0-2.819,0-4.229,0c-0.562,0-0.564,0-0.708,0.531
			C60.079,33.952,59.904,34.621,59.697,35.399z"/>
		<path fill="#2D3893" d="M10.794,38.899c1.097-4.101,2.17-8.101,3.259-12.169c-0.224-0.02-0.396-0.047-0.569-0.049
			c-0.879,0-1.759,0-2.638,0c-0.177,0-0.355-0.017-0.606-0.029l0.917-3.409h12.312c-0.033,0.176-0.052,0.319-0.089,0.458
			c-0.222,0.83-0.446,1.66-0.673,2.49c-0.13,0.477-0.132,0.481-0.643,0.481c-0.896,0-1.792,0-2.697,0
			c-0.207,0-0.392,0.017-0.623,0.027c-0.06,0.192-0.12,0.363-0.166,0.535c-0.989,3.684-1.978,7.369-2.967,11.052
			c-0.026,0.079-0.047,0.16-0.064,0.241c-0.042,0.288-0.208,0.369-0.488,0.367c-0.96-0.012-1.923,0-2.885,0L10.794,38.899z"/>
		<path fill="#2D3893" d="M109.724,23.227h4.648c-0.05,0.22-0.086,0.415-0.133,0.59c-0.981,3.667-1.965,7.332-2.945,10.994
			c-0.046,0.17-0.077,0.344-0.131,0.588c1.867,0.019,3.657,0,5.53,0.014c-0.322,1.201-0.621,2.313-0.919,3.439h-10.242
			C106.938,33.623,108.325,28.444,109.724,23.227z"/>
	</g>
</g>
</svg>
