<?xml version="1.0" encoding="utf-8"?>
<!-- Generator: Adobe Illustrator 15.1.0, SVG Export Plug-In . SVG Version: 6.00 Build 0)  -->
<!DOCTYPE svg PUBLIC "-//W3C//DTD SVG 1.1//EN" "http://www.w3.org/Graphics/SVG/1.1/DTD/svg11.dtd">
<svg version="1.1" id="Layer_1" xmlns="http://www.w3.org/2000/svg" xmlns:xlink="http://www.w3.org/1999/xlink" x="0px" y="0px"
	 width="512px" height="512px" viewBox="0 0 512 512" enable-background="new 0 0 512 512" xml:space="preserve">
<g>
	<g>
		<g>
			<path fill="#2E3094" d="M469.333,64H42.667C19.135,64,0,83.135,0,106.667v298.667C0,428.865,19.135,448,42.667,448h426.667
				C492.865,448,512,428.865,512,405.331V106.667C512,83.135,492.865,64,469.333,64z M42.667,85.333h426.667
				c1.572,0,2.957,0.571,4.432,0.896c-36.938,33.809-159.423,145.859-202.285,184.479c-3.354,3.021-8.76,6.625-15.479,6.625
				c-6.718,0-12.125-3.604-15.49-6.637c-42.86-38.611-165.351-150.67-202.284-184.465C39.706,85.908,41.094,85.333,42.667,85.333z
				 M21.333,405.331V106.667c0-2.09,0.63-3.986,1.194-5.896c28.272,25.876,113.736,104.062,169.152,154.453
				C136.443,302.671,50.957,383.719,22.46,410.893C21.957,409.077,21.333,407.305,21.333,405.331z M469.333,426.665H42.667
				c-1.704,0-3.219-0.594-4.81-0.974c29.447-28.072,115.477-109.586,169.742-156.009c7.074,6.417,13.536,12.27,18.63,16.858
				c8.792,7.938,19.083,12.123,29.771,12.123c10.688,0,20.979-4.188,29.76-12.113c5.096-4.592,11.563-10.448,18.641-16.868
				c54.27,46.418,140.287,127.926,169.742,156.009C472.552,426.073,471.039,426.665,469.333,426.665z M490.667,405.331
				c0,1.973-0.624,3.746-1.126,5.562c-28.508-27.188-113.984-108.227-169.219-155.668c55.418-50.393,140.869-128.57,169.149-154.456
				c0.564,1.91,1.194,3.809,1.194,5.897L490.667,405.331L490.667,405.331z"/>
		</g>
	</g>
</g>
</svg>
