<?xml version="1.0" encoding="utf-8"?>
<!-- Generator: Adobe Illustrator 15.1.0, SVG Export Plug-In . SVG Version: 6.00 Build 0)  -->
<!DOCTYPE svg PUBLIC "-//W3C//DTD SVG 1.1//EN" "http://www.w3.org/Graphics/SVG/1.1/DTD/svg11.dtd">
<svg version="1.1" id="Layer_1" xmlns="http://www.w3.org/2000/svg" xmlns:xlink="http://www.w3.org/1999/xlink" x="0px" y="0px"
	 width="160px" height="60px" viewBox="0 0 160 60" enable-background="new 0 0 160 60" xml:space="preserve">
<g>
	
		<rect display="none" fill-rule="evenodd" clip-rule="evenodd" fill="#040406" stroke="#161617" stroke-width="0.5817" stroke-miterlimit="10" width="160" height="60"/>
	<path fill-rule="evenodd" clip-rule="evenodd" fill="#050606" d="M111.064,36.735h-1.529c0,0.961-0.509,0.687,4.123,0.687
		c0.277,0,0.23-0.138,0.23-0.458c0-0.365-0.879-0.229-1.666-0.229l2.314-5.4h5.28c0.186,0.686,2.224,4.714,2.362,5.4
		c-1.76,0-2.038-0.229-2.038,0.458c0,0.183,0.046,0.229,0.231,0.229h7.18c0.324,0,0.277-0.138,0.277-0.458
		c0-0.412-1.25-0.229-1.992-0.229c-0.092-0.184-0.139-0.32-0.23-0.504l-3.335-7.553c-0.278-0.641-0.603-1.281-0.88-2.014
		c-0.324-0.687-0.603-1.281-0.926-2.014c-0.14-0.32-0.279-0.596-0.418-0.961c-0.186-0.367-0.277-0.688-0.463-1.008l-0.648-1.465
		c-0.186-0.504-0.092-0.412-1.019-0.412c-0.278,0-0.37,0.412-0.556,0.824c-1.854,4.623-4.029,9.43-5.883,14.007
		C111.342,36.003,111.11,36.415,111.064,36.735L111.064,36.735z M114.77,30.51h4.816l-2.362-5.675L114.77,30.51z"/>
	<path fill-rule="evenodd" clip-rule="evenodd" fill="#050606" d="M34.136,21.813h1.575v14.922c-1.807,0-1.575-0.184-1.575,0.596
		h4.585v-0.596h-1.667V23.461l3.659,5.081c0.648,0.915,5.928,8.285,5.975,8.56h1.204V21.813h1.574v-0.642h-4.585v0.642h1.668v9.521
		c-0.278-0.184-6.901-9.934-6.948-10.163h-5.465V21.813z"/>
	<path fill-rule="evenodd" clip-rule="evenodd" fill="#050606" d="M84.156,21.813c2.453,0,1.574-0.367,3.103,1.922
		c0.463,0.688,0.88,1.373,1.343,2.061l2.594,4.119c-0.602,0.916-3.149,3.937-4.029,5.081l-1.344,1.739c-0.23,0-0.509,0-0.787,0
		c-0.602-0.046-0.602-0.092-0.602,0.458c0,0.183,0.047,0.229,0.23,0.229h3.613c0.324,0,0.231-0.183,0.231-0.687h-1.25l3.474-4.303
		c0.186-0.275,0.973-1.328,1.25-1.419c0.093,0.229,0.278,0.503,0.417,0.687c0.14,0.274,0.324,0.504,0.464,0.732
		c0.324,0.457,0.602,0.916,0.926,1.419l1.853,2.884h-1.807v0.687h7.087c0.324,0,0.23-0.183,0.23-0.687
		c-2.084,0-1.436,0.229-2.223-0.961c-0.277-0.366-0.463-0.732-0.695-1.1l-4.121-6.408c0.231-0.365,2.27-2.791,2.64-3.25l2.27-2.838
		c0.324-0.504,0.186-0.365,1.528-0.365v-0.642h-4.029v0.642h1.344l-4.539,5.4c-0.047-0.32-0.603-1.053-0.834-1.373l-2.641-4.027
		h1.76v-0.642h-7.455V21.813z"/>
	<path fill-rule="evenodd" clip-rule="evenodd" fill="#050606" d="M59.84,21.813h2.039v14.922H59.84v0.596h13.432v-5.127h-0.324
		c-0.556,2.288-2.131,4.531-5.002,4.531h-2.732v-7.645c2.408,0,3.52-0.183,4.445,2.609c0.094,0.366,0,0.412,0.465,0.412v-6.866
		h-0.324c-0.186,0.732-0.51,1.465-0.928,2.06c-0.834,1.19-2.361,0.961-3.658,0.961v-6.453c1.297,0,4.029-0.139,5.095,0.273
		c0.88,0.367,1.204,0.732,1.714,1.328c0.973,1.189,0.51,1.831,1.25,1.831v-4.074H59.84V21.813z"/>
</g>
</svg>
