<?xml version="1.0" encoding="utf-8"?>
<!-- Generator: Adobe Illustrator 15.1.0, SVG Export Plug-In . SVG Version: 6.00 Build 0)  -->
<!DOCTYPE svg PUBLIC "-//W3C//DTD SVG 1.1//EN" "http://www.w3.org/Graphics/SVG/1.1/DTD/svg11.dtd">
<svg version="1.1" id="Layer_1" xmlns="http://www.w3.org/2000/svg" xmlns:xlink="http://www.w3.org/1999/xlink" x="0px" y="0px"
	 width="512px" height="512px" viewBox="0 0 512 512" enable-background="new 0 0 512 512" xml:space="preserve">
<g>
	<g>
		<path fill="#2E3094" d="M511.649,421.406c-1.628-12.304-8.73-22.911-19.484-29.103l-126.312-72.727
			c-15.472-8.907-35.098-6.313-47.726,6.313l-24.879,24.88c-6.621,6.621-17.095,7.207-24.358,1.361
			c-19.614-15.782-38.926-33.151-57.398-51.625c-18.472-18.473-35.841-37.783-51.625-57.398c-5.847-7.265-5.262-17.737,1.361-24.358
			l24.878-24.88c12.626-12.625,15.223-32.249,6.313-47.724L119.695,19.835c-6.193-10.756-16.8-17.856-29.103-19.484
			c-12.304-1.632-24.394,2.474-33.17,11.248L19.935,49.088C-6.23,75.254-6.65,123.115,18.751,183.859
			c24.425,58.406,70.006,122.702,128.346,181.044c58.341,58.341,122.637,103.922,181.045,128.348
			c29.899,12.504,56.676,18.752,79.282,18.75c23.319,0,42.201-6.648,55.487-19.935l37.488-37.489
			C509.176,445.8,513.276,433.71,511.649,421.406L511.649,421.406z M357.577,333.952l126.313,72.727
			c6.246,3.597,10.371,9.758,11.315,16.903c0.794,5.996-0.765,11.901-4.296,16.659l-167.868-95.805l6.818-6.817
			C337.191,330.286,348.592,328.781,357.577,333.952L357.577,333.952z M88.416,16.795c7.147,0.944,13.308,5.069,16.903,11.315
			l72.726,126.313c5.175,8.987,3.667,20.386-3.666,27.717l-6.262,6.263L71.786,21.091c3.938-2.916,8.647-4.5,13.557-4.5
			C86.361,16.591,87.389,16.659,88.416,16.795L88.416,16.795z M451.183,480.336c-20.786,20.786-63.301,19.915-116.641-2.392
			c-56.463-23.61-118.865-67.924-175.714-124.771c-56.85-56.851-101.162-119.252-124.773-175.714
			c-22.308-53.341-23.178-95.854-2.391-116.644l27.83-27.831l96.477,167.565l-6.47,6.47c-12.623,12.624-13.722,32.608-2.556,46.488
			c16.155,20.077,33.926,39.836,52.818,58.728c18.894,18.894,38.653,36.664,58.728,52.818c13.879,11.167,33.862,10.067,46.487-2.558
			l5.903-5.901l168.102,95.938L451.183,480.336L451.183,480.336z"/>
	</g>
</g>
</svg>
